<svg version="1.1" id="Livello_1" xmlns="http://www.w3.org/2000/svg" xmlns:xlink="http://www.w3.org/1999/xlink" x="0px" y="0px"
	 viewBox="0 0 600 250" style="enable-background:new 0 0 600 250;" xml:space="preserve">
<g>
	<defs>
		<rect id="SVGID_1_" x="0" width="600" height="250"/>
	</defs>
	<clipPath id="SVGID_2_">
		<use xlink:href="#SVGID_1_"  style="overflow:visible;"/>
	</clipPath>
	<g style="clip-path:url(#SVGID_2_);">
		<defs>
			<rect id="SVGID_4_" x="0" y="-125.101" width="617.94" height="421.101"/>
		</defs>
		<clipPath id="SVGID_5_">
			<use xlink:href="#SVGID_4_"  style="overflow:visible;"/>
		</clipPath>
		<g style="clip-path:url(#SVGID_5_);">
			<defs>
				<rect id="SVGID_3_" x="0" y="-125.101" width="617.94" height="560.202"/>
			</defs>
			<clipPath id="SVGID_6_">
				<use xlink:href="#SVGID_3_"  style="overflow:visible;"/>
			</clipPath>
			<rect x="0" y="-125.101" style="clip-path:url(#SVGID_6_);fill:#60B4E5;" width="617.94" height="560.202"/>
			<g style="clip-path:url(#SVGID_6_);">
				<g>
					<path style="fill:#CBCB98;" d="M607.94,385.101H417.282V219.572c0-14.954,12.122-27.076,27.076-27.076h136.506
						c14.954,0,27.076,12.122,27.076,27.076V385.101z"/>
					<path style="fill:#989866;" d="M585.082,192.496h-4.753v193.98h28.621V213.439C608.95,201.872,598.264,192.496,585.082,192.496
						z"/>
					<path style="fill:#CBCB98;" d="M187.659,387.917h-64.224v-248.6c0-10.221,8.285-18.506,18.506-18.506h27.212
						c10.221,0,18.506,8.285,18.506,18.506V387.917z"/>
					<path style="fill:#80C34E;" d="M287.747,436.614h-61.724v-81.119c0-5.872,4.761-10.633,10.633-10.633h40.458
						c5.872,0,10.633,4.761,10.633,10.633V436.614z"/>
					<path style="fill:#009748;" d="M277.413,344.695h-2.012v91.752h12.113v-81.845C287.514,349.13,282.992,344.695,277.413,344.695
						z"/>
					<path style="fill:#80C34E;" d="M438.421,386.53H244.664V180.32c0-16.703,13.54-30.243,30.243-30.243h133.271
						c16.703,0,30.243,13.54,30.243,30.243V386.53z"/>
					<path style="fill:#009748;" d="M411.787,149.646h-5.184V386.1h31.217V175.176C437.82,161.076,426.165,149.646,411.787,149.646z
						"/>
					<path style="fill:#80C34E;" d="M541.653,377.802H422.552V249.599c0-10.322,8.367-18.689,18.689-18.689h81.724
						c10.322,0,18.689,8.367,18.689,18.689V377.802z"/>
					<path style="fill:#009748;" d="M531.712,280.643l-13.882-50v146.892l33.373,50V296.502
						C551.204,287.743,542.477,280.643,531.712,280.643z"/>
					<path style="fill:#CBCB98;" d="M118.241,387.311H14.483v-225.39c0-12.519,10.149-22.668,22.668-22.668h58.422
						c12.519,0,22.668,10.149,22.668,22.668V387.311z"/>
					<path style="fill:#989866;" d="M92.816,139.253h-5.83v248.058h35.107V166.036C122.093,151.244,108.986,139.253,92.816,139.253z
						"/>
					<path style="fill:#60B4E5;" d="M281.458,454.724c0,0-5.157-5.685-13.52-18.842s7.637-12.158,30.637-17.158
						s21.208-2.852,36.306,5.574s100.652-28.883,134.624-22.729c33.972,6.155,18.07,0.488,53.07,12.821
						c35,12.333,52.028-2.333,65.514,0c13.486,2.333,29.764,9.907,29.764,9.907v30.426H281.458z"/>
					<path style="fill:#80C34E;" d="M618.95,436.697h-81.687V329.342c0-7.772,6.3-14.072,14.072-14.072h53.543
						c7.772,0,14.072,6.3,14.072,14.072V436.697z"/>
					<path style="fill:#009748;" d="M605.273,315.049h-2.662v121.427h16.031V328.159
						C618.642,320.919,612.656,315.049,605.273,315.049z"/>
					<path style="fill:#989866;" d="M170.649,120.836v267.056h17.515v-248.6C188.165,129.406,180.406,121.354,170.649,120.836z"/>
					<path style="fill:#4079BD;" d="M465.379,401.569l50.195,34.312l21.689,0.816v-18.416
						C537.263,418.281,481.184,398.081,465.379,401.569z"/>
					<path style="fill:#80C34E;" d="M287.747,436.614H170.845v-77.118c0-8.082,6.552-14.633,14.633-14.633h87.636
						c8.082,0,14.633,6.552,14.633,14.633V436.614z"/>
					<path style="fill:#009748;" d="M277.413,344.695h-2.012v91.752h12.113v-81.845C287.514,349.13,282.992,344.695,277.413,344.695
						z"/>
					<path style="fill:#80C34E;" d="M151.8,387.381H12.576V200.566c0-13.376,10.843-24.219,24.219-24.219h90.786
						c13.376,0,24.219,10.843,24.219,24.219V387.381z"/>
					<path style="fill:#009748;" d="M128.489,175.963h-4.537v211.035h27.322v-188.25
						C151.274,186.164,141.073,175.963,128.489,175.963z"/>
				</g>
				<g id="cloud2">
					<path style="fill:#FFFFFF;" d="M340.125,63.606c0,0,200.62,11.537,231.386-9.294c15.455-10.464,26.279-30.446,16.665-41.983
						C545.66-38.69,521.2,8.162,521.2,8.162s-30.129-57.685-86.854,2.885c0,0-48.759-53.447-66.339,11.407
						C355.497,68.604,340.125,63.606,340.125,63.606z"/>
				</g>
				<g>
					<g id="moccetto">
						<rect x="403.097" y="101.644" style="fill:#ED2524;" width="70.121" height="70.949"/>
						<path style="fill:#FFFFFF;" d="M423.819,155.742l32.515-2.844l5.735-7.675h-45.721c-1.48,0,1.982,3.206,1.982,4.686v0.309
							C418.33,151.699,422.339,155.742,423.819,155.742z"/>
						
							<ellipse transform="matrix(0.9899 0.1417 -0.1417 0.9899 22.5679 -58.5168)" style="fill:#FFFFFF;" cx="422.08" cy="129.171" rx="9.785" ry="7.087"/>
						<circle style="fill:#231F20;" cx="422.506" cy="129.171" r="2.835"/>
						
							<ellipse transform="matrix(-0.9899 0.1417 -0.1417 -0.9899 923.228 192.5869)" style="fill:#FFFFFF;" cx="454.756" cy="129.171" rx="9.785" ry="7.087"/>
						<circle style="fill:#231F20;" cx="454.756" cy="129.171" r="2.835"/>
						<polygon points="469.844,118.786 447.167,120.579 448.119,113.036 468.717,112.026 						"/>
						<polygon points="469.844,118.786 447.167,120.579 448.119,113.036 468.717,112.026 						"/>
						<polygon points="410.741,117.411 433.418,119.204 432.466,111.661 411.868,110.651 						"/>
					</g>
					<g>
						<g id="platform">
							<path style="fill:#F6EB0F;" d="M517.235,244.642H327.776c-6.229,0-11.326-5.097-11.326-11.326v-12.393
								c0-6.229,5.097-11.326,11.326-11.326h189.458c6.229,0,11.326,5.097,11.326,11.326v12.393
								C528.561,239.545,523.464,244.642,517.235,244.642z"/>
						</g>
					</g>
				</g>
				<g id="cloud1">
					<path style="fill:#FFFFFF;" d="M320.163,29.394C277.647-21.626,264.51,9.198,264.51,9.198s-30.129-57.685-86.854,2.885
						c0,0-3.133-3.432-8.093-7.5c-37.505-36.302-60.4,22.156-60.4,22.156S80.561-48.488,23.836,12.083
						c0,0-48.759-53.447-66.339,11.407c-9.692,35.753-21.099,40.807-25.748,41.27c15.55,0.838,176.749,1.085,176.749,1.085
						s136.661,2.503,166.165-7.45C292.348,52.428,329.778,40.931,320.163,29.394z"/>
					<path style="fill:#FFFFFF;" d="M14.47-26.741c-1.391-0.075-2.134-0.118-2.134-0.118S13.118-26.606,14.47-26.741z"/>
				</g>
				<g id="tree">
					
						<ellipse transform="matrix(-0.2177 -0.976 0.976 -0.2177 -1.9254 137.3646)" style="fill:#30B34A;" cx="54.09" cy="69.454" rx="18.813" ry="55.257"/>
					<rect x="82.104" y="86.169" style="fill:#FDF06A;" width="29.764" height="350.445"/>
					<rect x="82.104" y="144.244" style="fill:#FCBA48;" width="29.764" height="11.584"/>
					<rect x="82.104" y="214.304" style="fill:#FCBA48;" width="29.764" height="11.584"/>
					<rect x="82.104" y="284.852" style="fill:#FCBA48;" width="29.764" height="11.584"/>
					<rect x="82.104" y="354.941" style="fill:#FCBA48;" width="29.764" height="11.584"/>
					<rect x="82.104" y="424.298" style="fill:#FCBA48;" width="29.764" height="11.584"/>
					
						<ellipse transform="matrix(-0.7071 -0.7071 0.7071 -0.7071 39.2196 194.8991)" style="fill:#80C242;" cx="59.975" cy="89.327" rx="18.813" ry="55.257"/>
					
						<ellipse transform="matrix(-0.8977 -0.4406 0.4406 -0.8977 92.5976 218.2155)" style="fill:#30B34A;" cx="71.629" cy="98.359" rx="18.813" ry="55.257"/>
					
						<ellipse transform="matrix(-0.1967 0.9805 -0.9805 -0.1967 236.6727 -64.3943)" style="fill:#80C242;" cx="144.715" cy="64.755" rx="18.813" ry="55.257"/>
					
						<ellipse transform="matrix(-0.6069 0.7948 -0.7948 -0.6069 285.1553 27.4149)" style="fill:#30B34A;" cx="135.798" cy="84.228" rx="18.813" ry="55.257"/>
					
						<ellipse transform="matrix(-0.8981 0.4398 -0.4398 -0.8981 267.2558 134.7901)" style="fill:#80C242;" cx="118.011" cy="98.359" rx="18.813" ry="55.257"/>
				</g>
			</g>
		</g>
	</g>
</g>
</svg>
